<?xml version="1.0" standalone="no"?>
<!DOCTYPE svg PUBLIC "-//W3C//DTD SVG 20010904//EN"
 "http://www.w3.org/TR/2001/REC-SVG-20010904/DTD/svg10.dtd">
<svg version="1.0" xmlns="http://www.w3.org/2000/svg"
 width="800.000000pt" height="800.000000pt" viewBox="0 0 800.000000 800.000000"
 preserveAspectRatio="xMidYMid meet">
<metadata>
Created by potrace 1.11, written by Peter Selinger 2001-2013
</metadata>
<g transform="translate(0.000000,800.000000) scale(0.100000,-0.100000)"
fill="#000000" stroke="none">
<path d="M3095 6983 c-739 -2 -976 -6 -993 -15 -13 -7 -33 -33 -44 -58 -32
-69 -149 -311 -445 -920 -183 -375 -290 -593 -399 -815 -98 -199 -108 -225
-109 -276 0 -47 5 -61 30 -94 78 -99 211 -270 445 -575 140 -183 292 -380 337
-439 46 -58 145 -187 220 -286 75 -99 169 -220 208 -270 38 -49 97 -125 130
-168 33 -43 97 -126 143 -185 45 -59 156 -204 247 -322 90 -118 202 -263 247
-322 103 -133 193 -249 421 -548 99 -129 190 -247 201 -261 12 -14 32 -40 46
-59 14 -18 68 -88 120 -155 52 -67 110 -143 127 -169 65 -93 106 -86 188 32
27 39 91 124 141 189 49 65 160 210 245 323 85 113 181 239 213 280 32 41 126
165 208 274 83 110 210 276 282 370 73 94 178 232 233 306 55 74 127 169 159
210 98 127 204 266 380 498 193 255 491 648 739 974 287 378 275 360 275 395
0 20 -26 85 -69 170 -38 76 -87 176 -109 223 -22 47 -97 202 -167 345 -70 143
-160 328 -200 410 -40 83 -121 249 -180 370 -98 202 -221 455 -249 514 -24 53
22 50 -1051 53 -550 2 -1436 2 -1970 1z m829 -231 c5 -9 -23 -67 -399 -827
-128 -258 -268 -543 -311 -632 -44 -89 -83 -161 -89 -159 -12 3 -814 1609
-808 1619 6 10 1601 9 1607 -1z m1946 -4 c0 -6 -36 -84 -79 -172 -233 -474
-404 -822 -530 -1081 -183 -375 -175 -358 -186 -361 -6 -1 -36 52 -69 119 -50
104 -130 266 -157 317 -57 106 -579 1170 -579 1179 0 8 206 11 800 11 613 0
800 -3 800 -12z m-3555 -438 c92 -184 274 -550 406 -812 l238 -478 -797 -2
c-438 -2 -801 0 -805 3 -4 3 49 122 119 265 69 142 159 327 199 409 40 83 123
253 184 378 62 126 150 308 197 404 46 97 86 174 89 172 2 -2 79 -155 170
-339z m3745 319 c0 -6 43 -99 96 -207 53 -108 125 -255 159 -327 34 -71 105
-218 158 -325 52 -107 145 -298 207 -425 61 -126 121 -249 132 -272 12 -24 19
-45 16 -48 -7 -7 -1570 -7 -1576 0 -3 3 10 38 30 78 20 39 90 182 156 317 66
135 184 376 262 535 78 160 183 373 233 475 49 102 95 191 100 198 12 15 27
16 27 1z m-1685 -536 c146 -296 270 -545 274 -553 70 -129 251 -504 249 -512
-3 -9 -1591 -12 -1596 -3 -3 6 31 77 430 885 131 267 265 538 296 602 31 65
62 118 69 118 7 0 132 -242 278 -537z m-1303 -1330 c3 -16 22 -91 43 -168 20
-77 41 -157 46 -177 5 -21 13 -55 18 -75 5 -21 16 -63 24 -93 9 -30 43 -163
77 -295 34 -132 73 -283 87 -335 14 -52 29 -111 33 -130 4 -19 24 -96 43 -170
20 -74 56 -214 80 -310 25 -96 57 -218 71 -270 25 -96 68 -261 171 -665 31
-121 72 -281 92 -355 44 -168 48 -188 35 -175 -5 6 -61 78 -123 160 -62 83
-147 193 -189 246 -95 122 -394 509 -539 699 -61 80 -198 258 -305 395 -107
138 -231 300 -277 360 -108 142 -249 325 -369 479 -114 144 -183 234 -355 461
-120 157 -252 328 -310 400 -14 17 -25 33 -25 38 0 4 375 7 834 7 l834 0 4
-27z m1876 0 c-3 -16 -40 -163 -82 -328 -43 -165 -129 -502 -191 -750 -62
-247 -141 -556 -174 -685 -173 -679 -210 -824 -292 -1150 -49 -195 -92 -362
-95 -370 -3 -8 -19 35 -34 95 -51 203 -161 629 -177 685 -8 30 -19 73 -24 95
-19 80 -28 112 -64 250 -20 77 -61 232 -90 345 -55 213 -142 550 -200 775 -18
72 -45 173 -59 225 -14 52 -50 192 -80 310 -52 206 -119 460 -132 508 l-6 22
852 0 852 0 -4 -27z m1832 17 c0 -8 -87 -126 -246 -330 -28 -36 -129 -168
-224 -295 -96 -126 -207 -273 -248 -325 -40 -52 -148 -194 -239 -315 -92 -121
-200 -263 -240 -315 -41 -52 -149 -194 -240 -315 -92 -121 -200 -263 -240
-315 -41 -52 -149 -194 -240 -315 -92 -121 -200 -263 -240 -315 -40 -52 -121
-158 -180 -235 -58 -77 -110 -144 -116 -150 -12 -13 -12 -11 68 300 37 143 71
278 76 300 6 22 14 56 18 75 5 19 45 177 89 350 265 1035 363 1422 373 1465 4
22 15 67 24 100 9 33 47 184 86 335 38 151 72 283 75 293 5 16 53 17 825 17
520 0 819 -4 819 -10z"/>
</g>
</svg>
